<?xml version="1.0" encoding="UTF-8" standalone="no"?>
<!-- Created with Inkscape (http://www.inkscape.org/) -->

<svg
   width="126.42253mm"
   height="65.402611mm"
   viewBox="0 0 126.42253 65.402611"
   version="1.1"
   id="svg5"
   xml:space="preserve"
   xmlns:inkscape="http://www.inkscape.org/namespaces/inkscape"
   xmlns:sodipodi="http://sodipodi.sourceforge.net/DTD/sodipodi-0.dtd"
   xmlns="http://www.w3.org/2000/svg"
   xmlns:svg="http://www.w3.org/2000/svg"><sodipodi:namedview
     id="namedview7"
     pagecolor="#505050"
     bordercolor="#eeeeee"
     borderopacity="1"
     inkscape:showpageshadow="0"
     inkscape:pageopacity="0"
     inkscape:pagecheckerboard="0"
     inkscape:deskcolor="#505050"
     inkscape:document-units="mm"
     showgrid="false" /><defs
     id="defs2" /><g
     inkscape:label="Layer 1"
     inkscape:groupmode="layer"
     id="layer1"
     transform="translate(-39.694125,-111.1263)"><path
       style="opacity:1;fill:#0c4d74;fill-opacity:1;stroke-width:1;stroke-linejoin:round"
       d="m 94.236414,111.1263 7.626636,2.88045 28.01889,-1.73481 0.94924,4.28793 3.07684,-0.45825 2.06213,2.48766 2.74952,-0.81831 17.15175,8.805 1.99667,-0.32732 3.53509,1.66935 0.0327,2.2258 -1.24383,-0.16367 -0.1964,5.76089 -1.14563,-0.0655 0.0655,29.88463 2.74952,0.0655 4.4516,4.12428 v 6.64466 l -126.167917,0.13432 -0.254598,-3.24034 1.110972,-2.29138 2.268236,-0.16202 0.138872,-21.75654 -0.671214,-0.67121 -0.09258,-3.86526 4.906795,-3.47179 1.573877,0.11573 35.250233,-22.42776 -0.115726,-2.03678 z"
       id="path356" /></g></svg>
