<?xml version="1.0" encoding="UTF-8" standalone="no"?>
<!-- Created with Inkscape (http://www.inkscape.org/) -->

<svg
   width="111.7195mm"
   height="210.13197mm"
   viewBox="0 0 111.7195 210.13197"
   version="1.1"
   id="svg582"
   xml:space="preserve"
   xmlns="http://www.w3.org/2000/svg"
   xmlns:svg="http://www.w3.org/2000/svg"><defs
     id="defs579" /><g
     id="layer1"
     transform="translate(-51.842815,-43.861343)"><ellipse
       style="fill:none;stroke-width:0.264583"
       id="path955"
       cx="112.9062"
       cy="64.116074"
       rx="2.4071071"
       ry="4.4438901" /><circle
       style="fill:#000000;stroke-width:0.264583"
       id="path1022"
       cx="104.28524"
       cy="62.911568"
       r="19.050224" /><path
       id="path1024"
       style="stroke-width:0.33569"
       d="m 162.48744,147.36101 c -3.58529,6.09103 -9.80281,1.16716 -29.35212,-10.64243 -10.52878,-8.89163 -12.90878,-11.33721 -15.95148,-18.62028 -4.23334,17.07575 -5.15818,24.40573 -4.67339,35.16382 7.55229,6.73253 24.49051,21.65565 31.69049,34.72142 3.16868,5.75019 8.03135,21.33818 10.96201,35.7795 2.93066,14.44133 3.9293,27.73598 -0.63005,28.89948 -12.68917,3.23816 -17.79726,-24.64539 -27.7176,-56.67698 -9.09281,-8.51492 -21.49996,-21.16781 -25.38301,-24.5653 -1.20444,8.70666 -2.381223,14.65486 -5.356482,28.21618 -21.427284,39.63225 -31.618021,58.26043 -40.280434,53.67558 -12.621441,-6.68028 8.248868,-35.08008 17.048437,-51.6862 5.317492,-38.31107 10.614412,-78.70676 10.578628,-87.48643 -6.794017,7.91595 -12.55843,13.77441 -12.801189,17.32581 -1.199095,17.54195 -2.211251,31.61456 -8.62413,31.24548 -7.577222,-0.43609 -7.794041,-18.8558 -3.210628,-44.72882 4.2148,-10.44953 22.054224,-33.267367 44.256978,-33.041357 11.57268,0 20.74771,18.615757 35.65576,37.177457 20.0767,13.20656 27.93975,18.19008 23.78821,25.24311 z" /></g></svg>
